<?xml version="1.0" encoding="UTF-8" standalone="no"?>
<!-- Created with Inkscape (http://www.inkscape.org/) -->
<svg
   xmlns:svg="http://www.w3.org/2000/svg"
   xmlns="http://www.w3.org/2000/svg"
   version="1.0"
   width="92.000015"
   height="92.620201"
   id="svg2">
  <defs
     id="defs5" />
  <path
     d="M 46.000006,0.8160915 C 22.929228,9.9017405 10.230722,21.743077 0.8160915,34.652446 C 1.3994827,54.564503 6.3639925,72.505055 17.940587,87.470171 C 38.939372,93.728736 57.525061,92.748011 74.678377,87.470171 C 82.40527,75.660174 89.921035,63.699797 91.183921,34.652446 C 80.717993,19.687698 66.064729,8.0925688 46.000006,0.8160915 z"
     id="path2615"
     style="fill:#ffffff;fill-opacity:1;fill-rule:evenodd;stroke:#000080;stroke-width:1.5;stroke-linecap:butt;stroke-linejoin:miter;stroke-opacity:1" />
  <path
     d="M 67.076783,86.674188 L 67.00384,84.631731 L 66.092027,78.69382 C 59.365847,78.68893 55.151178,73.57626 46.000006,78.803236 C 36.848836,73.57626 32.634167,78.68893 25.907985,78.69382 L 24.996174,84.631731 L 24.923229,86.674188 M 67.040312,86.564771 C 60.31413,86.559881 54.968816,82.79669 46.000006,86.41888 C 37.031198,82.79669 31.685884,86.559881 24.959702,86.564771 M 67.040312,84.606151 C 60.31413,84.601261 54.968816,80.838071 46.000006,84.46026 C 37.031198,80.838071 31.685884,84.601261 24.959702,84.606151 M 46.004295,78.796141 L 46.004295,84.485842"
     id="buku"
     style="fill:none;fill-rule:evenodd;stroke:#000080;stroke-width:1;stroke-linecap:butt;stroke-linejoin:miter;stroke-opacity:1" />
  <path
     d="M 51.32287,23.874396 C 47.342291,19.258527 46.923053,21.479223 46.000006,19.643593 C 44.651485,21.582578 44.787061,19.207882 40.677142,23.874396 M 39.072352,52.395839 C 31.413143,26.767876 32.547582,27.752827 29.516577,27.740475 C 31.782581,26.150766 33.572364,25.538728 35.643945,25.698018 L 40.968921,43.569509 M 35.643945,25.625072 C 38.094518,23.495831 39.360594,23.735585 40.677141,23.874396 L 44.178495,38.536314 M 52.92766,52.395839 C 60.58687,26.767876 59.452431,27.752827 62.483435,27.740475 C 60.217432,26.150766 58.427648,25.538728 56.356067,25.698018 L 51.031091,43.569509 M 56.356067,25.625072 C 53.905494,23.495831 52.639418,23.735585 51.322871,23.874396 L 47.821517,38.536314"
     id="path3426"
     style="fill:none;fill-rule:evenodd;stroke:#000080;stroke-width:1;stroke-linecap:round;stroke-linejoin:miter;stroke-opacity:1" />
  <path
     d="M 46.000006,78.56556 C 49.570225,75.624423 48.668374,71.965452 46.000006,69.812175 C 42.754918,72.261773 42.596604,75.649722 46.000006,78.56556 z M 43.203398,45.077377 C 42.03282,64.409746 32.477742,60.336026 33.506375,56.627706 C 35.455495,49.600938 29.842413,47.88267 25.7044,50.736547 C 15.199605,57.981421 9.8673003,50.033008 12.836721,37.125357 C 7.4318435,47.600133 4.9937411,59.473373 17.818584,59.575169 M 10.405023,57.2102 C 9.4191161,61.118695 11.670093,63.85014 19.231351,64.650576 M 11.718031,62.535174 C 10.732124,66.443669 13.56666,68.883336 20.836138,68.954323 M 13.103983,67.27659 C 15.035871,71.258031 16.484454,73.697698 22.951539,73.331015 M 28.860072,49.696878 C 34.803928,56.960836 21.736484,65.017257 36.227505,74.060464 M 42.792543,49.405099 C 38.888841,51.854697 36.909016,54.877921 36.519283,59.76327 M 48.687198,45.077377 C 49.857775,64.409746 59.52227,60.336026 58.493637,56.627706 C 56.544517,49.600938 62.157599,47.88267 66.295612,50.736547 C 76.800408,57.981421 82.132714,50.033008 79.163293,37.125357 C 84.568169,47.600133 87.006272,59.473373 74.181428,59.575169 M 81.594989,57.2102 C 82.580896,61.118695 80.32992,63.85014 72.768661,64.650576 M 80.281983,62.535174 C 81.26789,66.443669 78.433353,68.883336 71.163874,68.954323 M 78.896029,67.27659 C 76.964143,71.258031 75.515558,73.697698 69.048474,73.331015 M 74.957007,72.528621 C 68.137813,85.992895 57.206397,66.111432 46.000006,78.655991 C 34.793616,66.111432 23.862199,85.992895 17.043005,72.528621 M 63.13994,49.696878 C 57.196085,56.960836 70.263528,65.017257 55.772508,74.060464 M 49.207469,49.405099 C 53.111171,51.854697 55.090996,54.877921 55.480729,59.76327 M 46.000006,39.995211 C 49.502511,42.408337 49.838966,46.306901 46.000006,49.186266 C 42.088101,46.01512 42.497501,42.554226 46.000006,39.995211 z"
     id="path3501"
     style="fill:none;fill-rule:evenodd;stroke:#000080;stroke-width:1;stroke-linecap:round;stroke-linejoin:miter;stroke-opacity:1" />
  <path
     d="M 46.000006,68.119588 C 47.786685,68.119588 48.524113,69.535638 48.993095,68.944907 C 55.528286,60.713147 46.86338,61.60915 46.000006,51.488158 C 45.136632,61.60915 36.471727,60.713147 43.006917,68.944907 C 43.475899,69.535638 44.213327,68.119588 46.000006,68.119588 z M 44.903724,56.15663 C 45.331537,60.770285 47.79613,61.880265 45.674103,66.173003"
     id="api"
     style="fill:none;fill-rule:evenodd;stroke:#000080;stroke-width:1;stroke-linecap:round;stroke-linejoin:round;stroke-opacity:1" />
  <path
     d="M 11.860718,29.798479 L 12.896761,30.509897 L 12.826976,30.611525 C 12.546609,30.507632 12.328999,30.45652 12.174147,30.458188 C 12.019296,30.459869 11.866879,30.503372 11.716894,30.588696 C 11.633912,30.636956 11.531035,30.750478 11.408264,30.929262 L 11.212478,31.214386 L 14.165343,33.242025 C 14.36107,33.376428 14.490831,33.449607 14.554626,33.461561 C 14.618418,33.47352 14.690311,33.460575 14.770304,33.422727 C 14.850294,33.384881 14.927766,33.311381 15.002722,33.202222 L 15.089954,33.075186 L 15.194405,33.146909 L 13.818092,35.151244 L 13.71364,35.07952 L 13.800872,34.952485 C 13.877117,34.841448 13.918741,34.738483 13.925743,34.643592 C 13.932994,34.576569 13.914319,34.506973 13.869716,34.434803 C 13.838763,34.383087 13.727304,34.291319 13.53534,34.159502 L 10.582476,32.131863 L 10.392506,32.408518 C 10.215462,32.666355 10.141455,32.891092 10.170485,33.082727 C 10.210499,33.351142 10.356793,33.603914 10.609368,33.841044 L 10.535706,33.948319 L 9.4996627,33.236901 L 11.860718,29.798479 z M 12.316283,29.158681 L 13.821602,27.293137 L 13.920209,27.372704 L 13.844943,27.46598 C 13.731688,27.606345 13.668571,27.71456 13.655593,27.790623 C 13.642618,27.866694 13.652932,27.936622 13.686534,28.000401 C 13.72014,28.06419 13.839991,28.179233 14.046087,28.345531 L 15.81569,29.773433 C 16.139051,30.034357 16.372857,30.18268 16.517108,30.218402 C 16.661358,30.254131 16.813288,30.243982 16.972901,30.187959 C 17.132511,30.131941 17.281131,30.018648 17.418761,29.848081 C 17.57646,29.652647 17.666889,29.450597 17.69005,29.241934 C 17.713209,29.033277 17.675099,28.832383 17.575722,28.639251 C 17.476341,28.446124 17.234767,28.194727 16.851,27.885058 L 15.377219,26.695856 C 15.215539,26.5654 15.086434,26.489093 14.989902,26.466932 C 14.893372,26.444784 14.810994,26.448717 14.742767,26.478732 C 14.63739,26.525716 14.525922,26.622049 14.408363,26.767734 L 14.309755,26.688167 L 15.318319,25.438252 L 15.416926,25.517818 L 15.356713,25.59244 C 15.274997,25.69372 15.227331,25.7946 15.213717,25.895082 C 15.200103,25.995578 15.221975,26.093897 15.279331,26.190042 C 15.317549,26.259022 15.410391,26.353004 15.557857,26.471991 L 16.930365,27.579474 C 17.354997,27.922118 17.6389,28.197404 17.782074,28.405331 C 17.925242,28.613266 17.988441,28.889409 17.971667,29.233757 C 17.954888,29.578112 17.79525,29.93773 17.492755,30.312613 C 17.240434,30.625317 17.003707,30.833259 16.782573,30.93644 C 16.481057,31.077438 16.202756,31.124225 15.947669,31.076803 C 15.692582,31.029382 15.414906,30.884529 15.114642,30.642244 L 13.345039,29.214342 C 13.137167,29.046609 12.998593,28.95386 12.929316,28.936096 C 12.860046,28.918337 12.787369,28.925699 12.711285,28.958177 C 12.635208,28.990664 12.53641,29.08402 12.414891,29.238249 L 12.316283,29.158681 z M 18.736313,21.848922 L 19.641682,22.720593 L 19.556177,22.809401 C 19.29664,22.660941 19.090357,22.57484 18.937326,22.551095 C 18.784296,22.527362 18.626809,22.545283 18.464863,22.604859 C 18.375092,22.638861 18.254992,22.733978 18.104567,22.890212 L 17.86468,23.139373 L 20.445104,25.623752 C 20.616146,25.788429 20.73215,25.881894 20.793122,25.904148 C 20.85409,25.926404 20.927132,25.925423 21.012249,25.901203 C 21.097361,25.876986 21.185838,25.817183 21.277678,25.721792 L 21.384558,25.610779 L 21.475835,25.698659 L 19.789499,27.450191 L 19.698221,27.362311 L 19.805103,27.251298 C 19.898522,27.154266 19.956466,27.059521 19.978933,26.967061 C 19.997075,26.902134 19.990065,26.830416 19.957899,26.75191 C 19.935845,26.695818 19.840942,26.587019 19.67319,26.425508 L 17.092765,23.941131 L 16.860003,24.182891 C 16.643078,24.408209 16.533223,24.617769 16.530437,24.811571 C 16.525897,25.082913 16.628764,25.356252 16.839038,25.631588 L 16.748783,25.725332 L 15.843414,24.853662 L 18.736313,21.848922 z M 26.29124,15.741339 L 26.367107,15.84282 C 26.301721,15.900258 26.257561,15.9632 26.234629,16.031646 C 26.211689,16.100107 26.207225,16.181831 26.221235,16.276817 C 26.226664,16.306969 26.275004,16.491737 26.366256,16.831123 L 27.49501,20.771712 L 27.388044,20.851678 L 24.674399,19.143445 L 25.45165,22.29928 L 25.350167,22.375146 L 21.857068,20.253396 C 21.504452,20.04099 21.279535,19.921242 21.182319,19.894148 C 21.08511,19.867062 20.973889,19.891773 20.84866,19.968283 L 20.772795,19.866801 L 22.385542,18.661149 L 22.461407,18.76263 C 22.334317,18.863346 22.262615,18.947591 22.2463,19.015366 C 22.229986,19.08315 22.24165,19.143553 22.281291,19.196576 C 22.333237,19.266063 22.488074,19.379767 22.745805,19.537689 L 24.824563,20.797016 L 24.354852,18.950493 L 23.905995,18.670358 C 23.660583,18.517478 23.488024,18.42201 23.388316,18.383953 C 23.288609,18.345906 23.197424,18.333551 23.114758,18.346886 C 23.032093,18.360234 22.933163,18.409963 22.817967,18.496075 L 22.7421,18.394593 L 24.544099,17.047461 L 24.619964,17.148943 C 24.495163,17.245099 24.412169,17.32282 24.370984,17.382107 C 24.342154,17.423619 24.328045,17.467658 24.328659,17.514226 C 24.329271,17.560805 24.343929,17.603293 24.372636,17.641685 C 24.404075,17.683746 24.541587,17.781899 24.785172,17.936145 L 26.779009,19.190545 L 26.193862,17.143853 C 26.134832,16.93145 26.090078,16.789608 26.059599,16.718325 C 26.029114,16.647055 25.994737,16.585817 25.956464,16.534613 C 25.900417,16.459651 25.830734,16.419818 25.747414,16.415116 C 25.664091,16.410428 25.548836,16.460247 25.401653,16.564571 L 25.325787,16.463089 L 26.29124,15.741339 z M 27.126682,15.287539 L 29.243364,14.162416 L 29.302834,14.274298 L 29.197,14.330554 C 29.037747,14.415211 28.937224,14.489973 28.895437,14.554841 C 28.853648,14.619719 28.835692,14.688082 28.841568,14.759933 C 28.847445,14.831792 28.912532,14.984641 29.036831,15.21848 L 30.104091,17.226304 C 30.299111,17.593197 30.45595,17.821377 30.57461,17.910845 C 30.693267,18.000316 30.836992,18.050607 31.005784,18.061719 C 31.174573,18.072832 31.35573,18.026953 31.549258,17.924083 C 31.771003,17.806215 31.933473,17.655865 32.036664,17.473033 C 32.139851,17.290204 32.183639,17.090469 32.16803,16.873831 C 32.152414,16.657196 32.02888,16.331163 31.79743,15.895729 L 30.908582,14.22355 C 30.811071,14.040109 30.722269,13.919256 30.642179,13.860991 C 30.562085,13.802736 30.484771,13.774024 30.410239,13.774855 C 30.294878,13.776715 30.154547,13.821575 29.989244,13.909436 L 29.929774,13.797555 L 31.34795,13.043722 L 31.407422,13.155604 L 31.322754,13.200609 C 31.207846,13.261693 31.124414,13.335774 31.072459,13.422852 C 31.020498,13.509942 31.00203,13.608958 31.017052,13.719899 C 31.025133,13.798343 31.073643,13.921222 31.162584,14.088535 L 31.990354,15.645807 C 32.24645,16.127608 32.399541,16.492225 32.449628,16.73966 C 32.499708,16.987099 32.449464,17.265889 32.298897,17.57603 C 32.148323,17.886174 31.860362,18.154293 31.435012,18.380388 C 31.080215,18.568982 30.780872,18.667337 30.536987,18.675459 C 30.204325,18.686816 29.929989,18.620631 29.713978,18.476904 C 29.497965,18.33318 29.299413,18.090976 29.118323,17.750289 L 28.051063,15.742465 C 27.925693,15.50661 27.834635,15.36692 27.777887,15.323393 C 27.721145,15.279875 27.651409,15.258123 27.568682,15.258138 C 27.48596,15.258162 27.358451,15.305256 27.186154,15.399421 L 27.126682,15.287539 z M 34.688287,14.455541 L 35.123581,15.681879 C 35.207584,15.91854 35.27499,16.062375 35.325802,16.11338 C 35.37661,16.164389 35.44508,16.195198 35.531215,16.205808 C 35.617346,16.216418 35.760454,16.186212 35.960543,16.11519 L 36.002928,16.234596 L 33.763249,17.02958 L 33.720865,16.910173 C 33.923102,16.838388 34.053575,16.770879 34.112287,16.707645 C 34.170996,16.644411 34.204182,16.577519 34.211845,16.506968 C 34.219506,16.436419 34.181335,16.282812 34.097331,16.046149 L 33.089283,13.206212 C 33.00528,12.969555 32.937872,12.825721 32.887062,12.774709 C 32.836254,12.723706 32.767783,12.692897 32.681651,12.682283 C 32.595519,12.671677 32.452409,12.701883 32.252321,12.7729 L 32.209938,12.653494 L 34.243075,11.931823 C 34.772335,11.743965 35.172581,11.643078 35.443815,11.629164 C 35.715045,11.615261 35.963052,11.679244 36.187836,11.821113 C 36.412615,11.962993 36.571972,12.166246 36.665907,12.430871 C 36.780454,12.753596 36.758971,13.061616 36.601456,13.354933 C 36.500348,13.541021 36.328243,13.714758 36.085137,13.876146 L 37.662995,14.983995 C 37.868651,15.126603 38.008926,15.211262 38.083821,15.237974 C 38.1957,15.27336 38.310878,15.273661 38.429352,15.238875 L 38.471737,15.358281 L 37.09372,15.847415 L 34.975509,14.353591 L 34.688287,14.455541 z M 33.926525,12.309452 L 34.606957,14.22641 L 34.790908,14.161116 C 35.089959,14.054968 35.303976,13.948115 35.432955,13.840556 C 35.561931,13.733004 35.643519,13.592607 35.67772,13.419366 C 35.711916,13.246132 35.688159,13.04441 35.606447,12.814199 C 35.488077,12.480725 35.322645,12.262066 35.110154,12.158219 C 34.897659,12.054381 34.618219,12.063936 34.271834,12.186882 L 33.926525,12.309452 z M 40.920587,14.762823 L 40.947983,14.886532 L 38.577464,15.4115 L 38.550068,15.287792 L 38.700525,15.254472 C 38.832034,15.225348 38.932727,15.178497 39.002606,15.113918 C 39.053647,15.069878 39.086379,15.00651 39.100803,14.923814 C 39.113473,14.864889 39.094635,14.721749 39.044287,14.494392 L 38.383819,11.512018 C 38.332482,11.280209 38.288137,11.13804 38.250785,11.085512 C 38.213432,11.032993 38.152607,10.993267 38.06831,10.966334 C 37.984014,10.939409 37.87834,10.940013 37.751288,10.968145 L 37.600831,11.001465 L 37.573435,10.877756 L 39.943954,10.352788 L 39.97135,10.476497 L 39.820894,10.509816 C 39.689384,10.538945 39.58869,10.585796 39.518815,10.65037 C 39.467771,10.694415 39.433923,10.75803 39.417273,10.841215 C 39.404601,10.900145 39.42344,11.043285 39.473789,11.270636 L 40.134257,14.25301 C 40.185592,14.484825 40.230494,14.62687 40.268964,14.679146 C 40.30743,14.731424 40.368811,14.771027 40.453109,14.797955 C 40.537405,14.824884 40.643079,14.82428 40.770133,14.796143 L 40.920587,14.762823 z M 44.704366,12.230118 L 44.735957,13.66805 C 44.74117,13.905424 44.757554,14.053493 44.785107,14.112259 C 44.812657,14.171026 44.865152,14.221823 44.942593,14.264651 C 45.02003,14.307478 45.1238,14.327463 45.253901,14.324605 L 45.407964,14.32122 L 45.410747,14.447895 L 42.983381,14.501223 L 42.980598,14.374548 L 43.134661,14.371163 C 43.269325,14.368205 43.377214,14.341857 43.45833,14.292121 C 43.516969,14.258863 43.561415,14.203082 43.591664,14.124777 C 43.615568,14.069448 43.624961,13.925379 43.619847,13.69257 L 43.552757,10.638676 C 43.54754,10.401307 43.531727,10.253225 43.505317,10.194429 C 43.478907,10.135642 43.426982,10.084832 43.349543,10.042 C 43.272103,9.9991768 43.168335,9.9791922 43.038237,9.9820458 L 42.884172,9.9854306 L 42.881389,9.8587555 L 45.308755,9.8054279 L 45.311538,9.9321029 L 45.157475,9.9354876 C 45.022808,9.9384506 44.914919,9.964798 44.833808,10.01453 C 44.775164,10.047792 44.729578,10.103598 44.697049,10.181949 C 44.673142,10.237283 44.663749,10.381352 44.668864,10.614156 L 44.697748,11.928837 L 46.337675,11.892809 L 46.308792,10.578128 C 46.303574,10.340759 46.287761,10.192677 46.261354,10.133881 C 46.234941,10.075093 46.182445,10.024296 46.103868,9.9814893 C 46.025285,9.9386914 45.920945,9.9187192 45.79085,9.9215729 L 45.640209,9.9248823 L 45.637426,9.7982073 L 48.061368,9.744955 L 48.064153,9.8716299 L 47.913512,9.8749395 C 47.77656,9.8779526 47.668672,9.9043 47.589844,9.9539815 C 47.531198,9.9872438 47.485612,10.04305 47.453085,10.1214 C 47.429176,10.176735 47.419783,10.320804 47.424902,10.553608 L 47.491994,13.607502 C 47.497204,13.844875 47.513017,13.992958 47.539432,14.051749 C 47.565837,14.110541 47.618333,14.161338 47.696918,14.20414 C 47.775495,14.246943 47.879834,14.266915 48.009937,14.264057 L 48.160577,14.260747 L 48.16336,14.387422 L 45.739418,14.440675 L 45.736635,14.313999 L 45.887276,14.31069 C 46.024218,14.307682 46.132107,14.281334 46.210943,14.231648 C 46.269581,14.19839 46.315166,14.142584 46.347702,14.064229 C 46.371602,14.0089 46.380995,13.864831 46.375885,13.632022 L 46.344294,12.19409 L 44.704366,12.230118 z M 51.386533,13.552122 L 49.766094,13.2975 L 49.503097,13.713752 C 49.416558,13.85268 49.36567,13.970634 49.350432,14.067611 C 49.330232,14.196164 49.367221,14.299038 49.461398,14.376233 C 49.516619,14.421886 49.662344,14.472516 49.898575,14.528123 L 49.878905,14.653292 L 48.353188,14.413554 L 48.372856,14.288385 C 48.541392,14.289446 48.68743,14.242486 48.810973,14.147504 C 48.934513,14.052522 49.101557,13.842471 49.312102,13.517349 L 51.527999,10.114792 L 51.592276,10.124891 L 52.655441,14.146687 C 52.757315,14.527833 52.851736,14.772613 52.938698,14.881028 C 53.004389,14.962991 53.106265,15.020597 53.244328,15.053846 L 53.224658,15.179015 L 51.005433,14.830305 L 51.025101,14.705135 L 51.116441,14.719488 C 51.294609,14.747484 51.423677,14.742343 51.503645,14.704067 C 51.558929,14.675778 51.591888,14.627804 51.602523,14.560145 C 51.608898,14.519549 51.608688,14.476763 51.601893,14.431786 C 51.600569,14.410779 51.580028,14.32089 51.540272,14.162116 L 51.386533,13.552122 z M 51.310849,13.283709 L 50.875733,11.596487 L 49.923833,13.065765 L 51.310849,13.283709 z M 56.431136,11.34107 L 57.702073,14.794703 L 58.328881,12.899183 C 58.416322,12.634745 58.437523,12.443379 58.392484,12.325085 C 58.330009,12.164966 58.175592,12.046575 57.92923,11.969913 L 57.969011,11.849614 L 59.425602,12.331279 L 59.385821,12.451578 C 59.191523,12.413782 59.056133,12.403276 58.979652,12.420061 C 58.903162,12.436851 58.83288,12.482141 58.768809,12.55593 C 58.704726,12.629724 58.638283,12.770662 58.56948,12.978744 L 57.35564,16.649486 L 57.245096,16.61293 L 55.477474,11.95628 L 54.550698,14.758919 C 54.466836,15.012522 54.468193,15.202932 54.55477,15.330148 C 54.641346,15.457364 54.759415,15.545701 54.908977,15.595157 L 55.013018,15.629562 L 54.973239,15.749861 L 53.409353,15.232716 L 53.449134,15.112417 C 53.692615,15.190527 53.87817,15.196581 54.005797,15.130579 C 54.133422,15.064577 54.235939,14.914529 54.313352,14.680433 L 55.342266,11.568919 L 55.286683,11.420692 C 55.232181,11.272828 55.175261,11.168643 55.115918,11.108138 C 55.056572,11.04764 54.960423,10.993002 54.82747,10.944224 L 54.86725,10.823925 L 56.431136,11.34107 z M 58.21423,16.847562 L 58.271474,16.734526 L 58.408951,16.804146 C 58.529116,16.865001 58.630819,16.892833 58.714057,16.887644 C 58.797293,16.882454 58.87069,16.855008 58.934247,16.805305 C 58.974237,16.771816 59.048382,16.648146 59.156682,16.434292 L 60.536727,13.709177 C 60.643993,13.497363 60.699833,13.359304 60.704248,13.295001 C 60.70866,13.230704 60.686808,13.16142 60.638693,13.087148 C 60.590573,13.012883 60.508469,12.946353 60.392379,12.887558 L 60.254901,12.817937 L 60.312145,12.7049 L 62.166568,13.644011 C 62.661482,13.89465 63.025622,14.163505 63.258985,14.450575 C 63.544078,14.802238 63.697267,15.193297 63.71855,15.623753 C 63.739824,16.054212 63.643712,16.480241 63.430212,16.901839 C 63.282714,17.193087 63.099979,17.437701 62.882009,17.635678 C 62.66403,17.833656 62.440218,17.974937 62.210577,18.059527 C 61.980927,18.144113 61.744355,18.185528 61.500859,18.183772 C 61.257359,18.182014 60.981668,18.136443 60.673788,18.047063 C 60.53717,18.008585 60.335458,17.921789 60.068651,17.786673 L 58.21423,16.847562 z M 61.772482,13.740009 L 60.135613,16.972263 C 60.048972,17.143347 60.004001,17.252362 60.000699,17.299311 C 59.997394,17.34626 60.009934,17.389716 60.038319,17.42968 C 60.077836,17.48808 60.149533,17.543581 60.253406,17.596183 C 60.593534,17.76843 60.912005,17.783845 61.208819,17.642426 C 61.61206,17.452544 61.980773,17.027656 62.314958,16.367763 C 62.584156,15.836183 62.715701,15.369242 62.709599,14.966938 C 62.703042,14.651419 62.618585,14.396249 62.456228,14.201426 C 62.341554,14.064028 62.11364,13.910223 61.772482,13.740009 L 61.772482,13.740009 z M 65.80771,19.669114 L 64.455031,18.741257 L 64.038372,19.003606 C 63.900426,19.091703 63.803688,19.176227 63.74816,19.25718 C 63.67455,19.364491 63.663613,19.473263 63.715348,19.583499 C 63.745516,19.648488 63.855216,19.756956 64.044445,19.908904 L 63.972774,20.013392 L 62.699166,19.139772 L 62.770838,19.035285 C 62.922476,19.108847 63.074499,19.12938 63.226906,19.096884 C 63.379313,19.064388 63.620549,18.946788 63.950618,18.744084 L 67.416152,16.628034 L 67.469808,16.664838 L 66.696703,20.752315 C 66.624445,21.140168 66.604204,21.401745 66.635981,21.537048 C 66.659955,21.639314 66.727077,21.735187 66.837347,21.824669 L 66.765676,21.929155 L 64.913155,20.658437 L 64.984826,20.55395 L 65.061073,20.606251 C 65.209799,20.708268 65.328492,20.759231 65.417149,20.759138 C 65.479227,20.757424 65.529637,20.728329 65.568382,20.671852 C 65.591624,20.637963 65.609865,20.599259 65.623109,20.555742 C 65.630963,20.536214 65.651151,20.446245 65.683671,20.285833 L 65.80771,19.669114 z M 65.855039,19.39428 L 66.18921,17.6842 L 64.697214,18.60008 L 65.855039,19.39428 z M 73.641365,21.761626 L 73.558131,21.857158 C 73.4293,21.772169 73.311409,21.7285 73.204457,21.726148 C 73.055398,21.723456 72.747699,21.802067 72.281356,21.96198 L 70.417723,22.568339 L 69.679862,23.415217 C 69.522389,23.59595 69.434,23.716513 69.414695,23.776906 C 69.395384,23.837293 69.399078,23.908642 69.425779,23.99095 C 69.452473,24.073253 69.512297,24.1549 69.60525,24.235885 L 69.801478,24.406853 L 69.718243,24.502385 L 67.753384,22.790458 L 67.836618,22.694927 L 68.019937,22.854645 C 68.123213,22.944628 68.220722,22.997791 68.312462,23.014136 C 68.378209,23.029028 68.44949,23.018461 68.526301,22.982434 C 68.581227,22.95762 68.685176,22.857427 68.838149,22.681854 L 69.450035,21.979567 L 69.933397,19.761841 C 70.027822,19.323308 70.064343,19.048546 70.042956,18.937555 C 70.021565,18.82657 69.955677,18.721475 69.845295,18.622268 L 69.92853,18.526736 L 71.606793,19.988961 L 71.52356,20.084493 L 71.448683,20.019255 C 71.347122,19.930774 71.26337,19.883542 71.19743,19.877558 C 71.13148,19.871578 71.084259,19.884941 71.05577,19.917643 C 71.001775,19.979612 70.934903,20.195377 70.855152,20.564941 L 70.477668,22.275379 L 72.02774,21.768261 C 72.409329,21.646541 72.63687,21.54351 72.710361,21.459167 C 72.750847,21.412692 72.762215,21.354465 72.744462,21.284489 C 72.723425,21.190467 72.638339,21.070916 72.489207,20.925834 L 72.57244,20.830303 L 73.641365,21.761626 z M 73.610405,26.548072 L 72.487499,25.352352 L 72.024367,25.519507 C 71.870771,25.576058 71.758193,25.637934 71.686633,25.705137 C 71.591774,25.794218 71.557823,25.898135 71.584781,26.016884 C 71.600351,26.086823 71.68431,26.216245 71.83666,26.405153 L 71.744296,26.49189 L 70.687032,25.366067 L 70.779394,25.27933 C 70.911787,25.383623 71.055899,25.436199 71.211731,25.437054 C 71.367561,25.437911 71.628369,25.374633 71.994156,25.24722 L 75.832103,23.921417 L 75.876644,23.968845 L 74.247128,27.796357 C 74.093582,28.159777 74.017859,28.41097 74.019959,28.549939 C 74.021502,28.654965 74.066563,28.762978 74.155143,28.873975 L 74.06278,28.960714 L 72.524938,27.323153 L 72.617302,27.236414 L 72.680596,27.303815 C 72.80406,27.435282 72.909104,27.510454 72.995728,27.529327 C 73.056736,27.540932 73.112204,27.523293 73.162131,27.47641 C 73.192085,27.448276 73.218184,27.414371 73.240429,27.374694 C 73.252278,27.357298 73.291242,27.273729 73.357321,27.123984 L 73.610405,26.548072 z M 73.715425,26.289721 L 74.407647,24.690698 L 72.754275,25.266246 L 73.715425,26.289721 z M 78.843803,27.526645 L 77.999055,31.108441 L 79.56739,29.873042 C 79.786181,29.700692 79.909414,29.55276 79.937093,29.429247 C 79.973295,29.261226 79.90979,29.077302 79.746574,28.877473 L 79.846108,28.799067 L 80.795437,30.004239 L 80.695903,30.082642 C 80.554678,29.943947 80.447538,29.86051 80.374485,29.832327 C 80.30142,29.804143 80.217817,29.803157 80.123674,29.829367 C 80.029518,29.855576 79.89636,29.93649 79.724199,30.07211 L 76.687062,32.464505 L 76.615016,32.373041 L 77.708993,27.513813 L 75.390118,29.340425 C 75.180288,29.50571 75.076398,29.665285 75.078448,29.819154 C 75.080496,29.97302 75.13026,30.111827 75.227735,30.235573 L 75.295545,30.321656 L 75.196011,30.400061 L 74.176753,29.106117 L 74.276287,29.027713 C 74.436303,29.227161 74.58774,29.334556 74.730604,29.349895 C 74.873464,29.365232 75.041738,29.296617 75.235428,29.144046 L 77.809865,27.116127 L 77.845256,26.961828 C 77.881352,26.808428 77.891334,26.690129 77.875208,26.606928 C 77.859072,26.523732 77.809007,26.425124 77.725011,26.311105 L 77.824545,26.232701 L 78.843803,27.526645 z M 78.792567,35.068863 L 78.688558,35.141226 L 77.301925,33.148187 L 77.405934,33.075824 L 77.493943,33.202322 C 77.57087,33.312891 77.652479,33.388216 77.738772,33.428301 C 77.798908,33.458772 77.869962,33.464961 77.951934,33.446867 C 78.011252,33.436189 78.136488,33.364355 78.327639,33.231363 L 80.835102,31.486827 C 81.029998,31.351229 81.144639,31.256172 81.179026,31.201657 C 81.213404,31.147144 81.227028,31.075785 81.219897,30.987577 C 81.212758,30.899375 81.172032,30.801862 81.097717,30.695039 L 81.009708,30.568541 L 81.113717,30.496179 L 82.50035,32.489218 L 82.39634,32.561581 L 82.308331,32.435083 C 82.2314,32.324516 82.149789,32.249189 82.063502,32.209104 C 82.003361,32.178633 81.931655,32.171508 81.848386,32.187727 C 81.789062,32.198405 81.663826,32.270239 81.472678,32.403231 L 78.965217,34.147767 C 78.770315,34.283365 78.656,34.378891 78.622271,34.434342 C 78.588539,34.489793 78.575242,34.561622 78.582378,34.649828 C 78.58951,34.738031 78.630238,34.835543 78.704558,34.942366 L 78.792567,35.068863 z"
     id="text3507"
     style="font-size:42.96897888px;font-style:normal;font-variant:normal;font-weight:bold;font-stretch:normal;text-align:start;line-height:125%;writing-mode:lr-tb;text-anchor:start;fill:#000080;fill-opacity:1;stroke:#000080;stroke-width:0.1;stroke-linecap:butt;stroke-linejoin:miter;stroke-opacity:1;font-family:Times New Roman;-inkscape-font-specification:Times New Roman Bold" />
</svg>
